<svg width="714" height="373" viewBox="0 0 714 373" fill="none" xmlns="http://www.w3.org/2000/svg">
<path d="M26.4877 59.8352C10.5533 66.6642 5.67543 55.2825 5.35024 50.0794C3.72432 51.7054 -2.51924 59.9655 1.12278 70.8916C6.32581 86.5008 21.6097 89.4275 33.6418 84.8748L108.198 53.5726C109.627 52.9726 110.003 53.7306 108.604 54.3988C96.1934 60.3293 75.157 70.9053 49.3556 95.6061C15.7479 127.78 15.7564 180.806 57.706 213C-13.5108 134.954 127.622 71.8672 192.114 48.1283L139.979 12.3573C100.956 27.9665 39.5344 54.2437 26.4877 59.8352Z" fill="#000000"/>
<path d="M78.8958 17.5603L49.5763 30.2427L38.845 10.4061L63.2867 0L78.8958 17.5603Z" fill="#000000"/>
<path d="M171.3 245L169.1 231.58C165.58 236.273 161.4 239.867 156.56 242.36C151.72 244.853 145.267 246.1 137.2 246.1C129.573 246.1 122.973 244.853 117.4 242.36C111.827 239.72 107.5 236.127 104.42 231.58C101.487 226.887 100.02 221.46 100.02 215.3C100.02 206.06 103.393 198.36 110.14 192.2C117.033 185.893 127.08 182.007 140.28 180.54L169.1 177.46V168.88C169.1 165.36 167.56 162.207 164.48 159.42C161.4 156.487 156.487 155.02 149.74 155.02C143.873 155.02 138.74 156.487 134.34 159.42C130.087 162.207 127.227 166.46 125.76 172.18L104.2 164.26C106.987 154.58 112.487 147.027 120.7 141.6C129.06 136.173 139.18 133.46 151.06 133.46C165.433 133.46 176.213 137.053 183.4 144.24C190.587 151.427 194.18 160.593 194.18 171.74V245H171.3ZM169.1 196.6L142.7 199.9C137.127 200.633 132.947 202.247 130.16 204.74C127.373 207.087 125.98 210.093 125.98 213.76C125.98 217.133 127.3 220.067 129.94 222.56C132.727 224.907 136.467 226.08 141.16 226.08C147.173 226.08 152.233 224.98 156.34 222.78C160.593 220.58 163.747 217.427 165.8 213.32C168 209.213 169.1 204.153 169.1 198.14V196.6ZM212.956 86.6H237.816V245H212.956V86.6ZM258.081 86.6H282.941V179.44H291.081L329.801 135H362.581L312.641 190L362.801 245H330.021L291.081 200.34H282.941V245H258.081V86.6ZM371.528 86.6H396.388V145.12C399.908 141.6 404.234 138.813 409.368 136.76C414.501 134.56 420.221 133.46 426.528 133.46C434.741 133.46 441.928 135.293 448.088 138.96C454.394 142.48 459.234 147.76 462.608 154.8C466.128 161.693 467.888 170.347 467.888 180.76V245H442.148V184.06C442.148 174.82 440.241 167.853 436.428 163.16C432.761 158.467 427.188 156.12 419.708 156.12C412.081 156.12 406.288 158.54 402.328 163.38C398.368 168.22 396.388 175.26 396.388 184.5V245H371.528V86.6ZM552.467 245L550.267 231.58C546.747 236.273 542.567 239.867 537.727 242.36C532.887 244.853 526.434 246.1 518.367 246.1C510.741 246.1 504.141 244.853 498.567 242.36C492.994 239.72 488.667 236.127 485.587 231.58C482.654 226.887 481.187 221.46 481.187 215.3C481.187 206.06 484.561 198.36 491.307 192.2C498.201 185.893 508.247 182.007 521.447 180.54L550.267 177.46V168.88C550.267 165.36 548.727 162.207 545.647 159.42C542.567 156.487 537.654 155.02 530.907 155.02C525.041 155.02 519.907 156.487 515.507 159.42C511.254 162.207 508.394 166.46 506.927 172.18L485.367 164.26C488.154 154.58 493.654 147.027 501.867 141.6C510.227 136.173 520.347 133.46 532.227 133.46C546.601 133.46 557.381 137.053 564.567 144.24C571.754 151.427 575.347 160.593 575.347 171.74V245H552.467ZM550.267 196.6L523.867 199.9C518.294 200.633 514.114 202.247 511.327 204.74C508.541 207.087 507.147 210.093 507.147 213.76C507.147 217.133 508.467 220.067 511.107 222.56C513.894 224.907 517.634 226.08 522.327 226.08C528.341 226.08 533.401 224.98 537.507 222.78C541.761 220.58 544.914 217.427 546.967 213.32C549.167 209.213 550.267 204.153 550.267 198.14V196.6ZM597.643 135H622.503V245H597.643V135ZM610.183 118.28C605.636 118.28 601.823 116.74 598.743 113.66C595.663 110.58 594.123 106.913 594.123 102.66C594.123 98.1133 595.663 94.3 598.743 91.22C601.823 88.14 605.636 86.6 610.183 86.6C614.583 86.6 618.323 88.14 621.403 91.22C624.483 94.3 626.023 98.1133 626.023 102.66C626.023 106.913 624.483 110.58 621.403 113.66C618.323 116.74 614.583 118.28 610.183 118.28ZM646.553 135H668.993L670.973 148.64C673.907 144.973 677.353 141.967 681.313 139.62C685.273 137.127 689.527 135.44 694.073 134.56C698.767 133.68 703.46 133.827 708.153 135V157.88C704.34 156.56 700.233 156.267 695.833 157C691.58 157.587 687.62 159.2 683.953 161.84C680.287 164.333 677.28 167.927 674.933 172.62C672.587 177.167 671.413 182.813 671.413 189.56V245H646.553V135Z" fill="#000000"/>
<path d="M170.827 279.364V323H166.842V279.364H170.827ZM228.413 279.364V323H224.535L198.754 286.459H198.413V323H194.428V279.364H198.285L224.151 315.947H224.492V279.364H228.413ZM252.078 279.364L265.714 317.822H266.098L279.734 279.364H283.911L268.037 323H263.776L247.902 279.364H252.078ZM303.389 323V279.364H328.702V282.943H307.374V299.371H327.359V302.95H307.374V319.42H329.128V323H303.389ZM374.707 290.273C374.466 287.844 373.393 285.912 371.49 284.477C369.587 283.043 367.193 282.325 364.31 282.325C362.278 282.325 360.489 282.673 358.94 283.369C357.406 284.065 356.199 285.031 355.318 286.267C354.452 287.489 354.018 288.881 354.018 290.443C354.018 291.594 354.267 292.602 354.764 293.469C355.261 294.335 355.929 295.081 356.767 295.706C357.619 296.317 358.557 296.842 359.58 297.283C360.616 297.723 361.661 298.092 362.712 298.391L367.314 299.712C368.706 300.095 370.098 300.585 371.49 301.182C372.882 301.778 374.153 302.531 375.304 303.44C376.469 304.335 377.399 305.436 378.095 306.743C378.805 308.036 379.161 309.591 379.161 311.409C379.161 313.739 378.557 315.834 377.349 317.695C376.142 319.555 374.409 321.033 372.151 322.126C369.892 323.206 367.186 323.746 364.033 323.746C361.064 323.746 358.486 323.256 356.298 322.276C354.111 321.281 352.392 319.911 351.142 318.163C349.892 316.416 349.189 314.392 349.033 312.091H353.124C353.266 313.81 353.834 315.266 354.828 316.459C355.822 317.652 357.115 318.561 358.706 319.186C360.297 319.797 362.072 320.102 364.033 320.102C366.206 320.102 368.138 319.74 369.828 319.016C371.533 318.277 372.868 317.254 373.834 315.947C374.814 314.626 375.304 313.092 375.304 311.345C375.304 309.868 374.92 308.632 374.153 307.638C373.386 306.629 372.314 305.784 370.936 305.102C369.572 304.42 367.989 303.817 366.185 303.291L360.964 301.757C357.541 300.734 354.885 299.321 352.996 297.517C351.107 295.713 350.162 293.412 350.162 290.614C350.162 288.27 350.787 286.21 352.037 284.435C353.301 282.645 355.006 281.253 357.151 280.259C359.31 279.25 361.732 278.746 364.416 278.746C367.129 278.746 369.53 279.243 371.618 280.237C373.706 281.232 375.361 282.602 376.582 284.349C377.818 286.082 378.479 288.057 378.564 290.273H374.707ZM398.107 282.943V279.364H429.747V282.943H415.919V323H411.935V282.943H398.107ZM450.717 279.364H455.32L471.151 317.375H471.534L487.365 279.364H491.967V323H488.217V287.78H487.876L473.153 323H469.531L454.808 287.78H454.467V323H450.717V279.364ZM515.569 323V279.364H540.881V282.943H519.553V299.371H539.539V302.95H519.553V319.42H541.308V323H515.569ZM597.178 279.364V323H593.3L567.519 286.459H567.178V323H563.194V279.364H567.05L592.917 315.947H593.258V279.364H597.178ZM618.138 282.943V279.364H649.778V282.943H635.95V323H631.966V282.943H618.138Z" fill="#000000"/>
</svg>
